<svg width="14" height="27" viewBox="0 0 14 27" fill="none" xmlns="http://www.w3.org/2000/svg">
<path d="M0.237421 26.2644C0.377372 26.4056 0.567732 26.4856 0.766756 26.4867C0.966163 26.4885 1.15781 26.4082 1.29609 26.2644L13.7786 13.7814C13.9202 13.6416 14 13.4511 14 13.2521C14 13.053 13.9202 12.8625 13.7786 12.7227L1.29609 0.237354C1.15743 0.0890936 0.96449 0.00342355 0.761557 0.000100739C0.558459 -0.00322264 0.362932 0.0758023 0.219271 0.219444C0.0758087 0.362907 -0.00339544 0.558617 0.00011171 0.761541C0.00343514 0.964454 0.0891046 1.1574 0.237365 1.29607L12.1905 13.2521L0.237365 25.2052C0.0963032 25.3454 0.0170944 25.5359 0.0170944 25.7347C0.0170944 25.9334 0.0963032 26.1239 0.237365 26.2641L0.237421 26.2644Z" fill="#D7D7D7"/>
</svg>
