<svg width="27" height="14" viewBox="0 0 27 14" fill="none" xmlns="http://www.w3.org/2000/svg">
<path d="M0.222416 0.23742C0.081171 0.377371 0.00122449 0.567731 0.000118222 0.766755C-0.0017281 0.966162 0.0785903 1.15781 0.222416 1.29609L12.7054 13.7786C12.8452 13.9202 13.0357 14 13.2348 14C13.4338 14 13.6243 13.9202 13.7641 13.7786L26.2495 1.29609C26.3977 1.15743 26.4834 0.96449 26.4867 0.761557C26.49 0.558459 26.411 0.362932 26.2674 0.219271C26.1239 0.0758087 25.9282 -0.00339547 25.7253 0.000111677C25.5224 0.0034351 25.3294 0.0891045 25.1907 0.237364L13.2348 12.1905L1.2816 0.237363C1.14146 0.0963021 0.95092 0.0170933 0.752075 0.0170933C0.553411 0.0170933 0.362867 0.0963021 0.222742 0.237363L0.222416 0.23742Z" fill="black"/>
</svg>
