<svg width="14" height="15" viewBox="0 0 14 15" fill="none" xmlns="http://www.w3.org/2000/svg">
<path d="M10.2364 13.5777C8.99557 14.1333 7.92014 14.3185 6.45199 14.3185C3.01932 14.3185 0 11.8702 0 7.83807C0 3.64148 3.08125 0 7.73409 0C11.3943 0 14 2.48935 14 5.94546C14 8.9696 12.3042 10.8622 10.071 10.8622C9.09912 10.8622 8.39611 10.3479 8.29256 9.27818H8.25116C7.58932 10.3069 6.67946 10.8622 5.56284 10.8622C4.23937 10.8622 3.24685 9.85426 3.24685 8.16736C3.24685 5.63707 5.12872 3.37389 8.10651 3.37389C9.01636 3.37389 10.0503 3.60028 10.5467 3.86773L9.92636 7.69415C9.74026 8.90798 9.88497 9.46338 10.4641 9.48392C11.3533 9.52509 12.47 8.3935 12.47 6.00722C12.47 3.31256 10.7329 1.25523 7.52764 1.25523C4.34298 1.25523 1.5927 3.7033 1.5927 7.65296C1.5927 11.1092 3.78463 13.043 6.86599 13.043C7.92057 13.043 9.05815 12.8167 9.88531 12.4053L10.2364 13.5777ZM8.4165 5.08142C8.25104 5.04025 8.02355 4.99897 7.77543 4.99897C6.41057 4.99897 5.33514 6.33607 5.33514 7.91999C5.33514 8.7019 5.6867 9.19562 6.34855 9.19562C7.13435 9.19562 7.94091 8.22883 8.10636 7.03565L8.4165 5.08142Z" fill="black"/>
</svg>
