<svg width="452" height="431" viewBox="0 0 452 431" fill="none" xmlns="http://www.w3.org/2000/svg">
<path d="M322.938 430.571C306.137 430.571 288.715 426.837 271.915 418.751L96.4554 335.997C85.8774 331.02 77.7874 322.309 74.0574 311.106C70.323 299.907 70.948 288.083 75.9246 277.504C76.5457 275.637 78.4129 273.77 80.2801 273.149C98.3231 261.95 134.413 256.969 154.948 266.305L74.0571 136.265C67.8344 126.308 65.9673 114.488 68.4555 103.288C70.9438 92.0888 78.4125 82.1318 88.3655 75.9088C108.901 63.4638 136.276 69.6861 148.721 90.2208L184.811 148.709C187.92 145.599 191.033 142.486 194.768 140.619C207.834 132.529 224.014 131.908 237.08 138.752C240.814 131.908 245.79 126.307 252.635 121.951C265.701 113.861 281.881 113.24 294.947 120.084C298.681 113.24 303.657 107.639 310.502 103.283C321.08 97.0599 333.525 95.1928 345.346 98.306C356.545 101.415 365.881 108.263 371.479 118.216L435.569 235.196C466.678 292.442 446.768 354.656 412.546 390.746C387.034 416.262 355.3 430.57 322.944 430.57L322.938 430.571ZM93.9584 289.951C92.7123 294.307 92.7123 299.283 94.5795 303.639C96.4467 309.241 100.802 313.596 105.779 316.084L281.249 398.842C328.538 421.24 372.093 400.709 396.979 374.576C425.6 344.088 443.022 291.822 416.889 244.536L352.178 126.926C349.689 122.571 345.334 118.836 339.733 117.594C333.51 115.727 327.288 116.973 321.69 120.082C315.467 123.817 311.733 130.039 311.112 137.504C310.49 141.86 308.002 145.594 303.647 147.461C299.291 148.707 294.936 147.461 291.827 144.352C284.983 136.262 272.538 134.395 263.206 139.996C256.983 143.731 253.249 149.953 252.628 157.418C252.007 161.774 249.518 165.508 245.163 167.375C240.807 168.622 236.452 167.375 233.343 164.266C226.499 156.176 214.054 154.309 204.722 159.911C199.745 163.02 196.011 168 194.765 174.223C193.519 178.578 190.409 181.687 186.054 182.933C181.699 183.555 177.343 181.687 174.855 177.957L128.812 103.289C122.589 92.7109 108.902 89.6009 98.324 96.4451C93.3474 99.5545 89.6131 104.535 88.367 110.133C87.1209 115.735 87.7459 121.953 90.8553 126.934L191.035 288.714C193.524 293.07 192.903 298.046 189.789 301.78C186.68 305.514 181.078 306.757 176.723 304.268L145.602 286.217C133.778 280.62 108.27 283.108 93.9572 289.952L93.9584 289.951Z" fill="black"/>
<path d="M74.6684 208.441C73.4223 208.441 72.1801 208.441 70.934 207.82C28.622 192.886 0 152.441 0 107.02C0 47.911 47.91 0 107.02 0C159.286 0 204.708 39.199 212.8 90.223C213.421 96.4457 209.691 102.043 203.468 102.668C197.245 103.289 191.648 99.5586 191.023 93.336C184.8 52.27 148.711 21.781 107.023 21.781C60.355 21.781 22.402 59.738 22.402 106.402C22.402 142.492 44.8 174.222 79.023 186.668C84.6246 188.535 87.7339 194.758 85.8668 200.98C83.3785 205.335 79.023 208.445 74.6678 208.445L74.6684 208.441Z" fill="black"/>
</svg>
