<svg width="21" height="21" viewBox="0 0 21 21" fill="none" xmlns="http://www.w3.org/2000/svg">
<path d="M3.10227 0C1.39741 0 0 1.39741 0 3.10227C0 4.80713 1.39741 6.20455 3.10227 6.20455C4.80713 6.20455 6.20455 4.80713 6.20455 3.10227C6.20455 1.39741 4.80713 0 3.10227 0ZM3.10227 1.43182C4.03332 1.43182 4.77273 2.17123 4.77273 3.10227C4.77273 4.03332 4.03332 4.77273 3.10227 4.77273C2.17123 4.77273 1.43182 4.03332 1.43182 3.10227C1.43182 2.17123 2.17123 1.43182 3.10227 1.43182ZM15.5114 6.20455C14.1573 6.20455 13.1794 6.71341 12.4091 7.33807C12.3794 6.98355 12.0489 6.68061 11.6932 6.68182H7.875C7.50016 6.68186 7.15913 7.02289 7.15909 7.39773V20.2841C7.15913 20.6589 7.50016 21 7.875 21H11.9318C12.3067 21 12.6477 20.6589 12.6477 20.2841V13.125C12.6477 12.5693 12.8262 12.0445 13.0728 11.7006C13.3194 11.3568 13.5882 11.2159 13.8409 11.2159H14.3182C14.5709 11.2159 14.8397 11.3568 15.0863 11.7006C15.3329 12.0445 15.5114 12.5693 15.5114 13.125V20.2841C15.5114 20.6589 15.8524 21 16.2273 21H20.2841C20.6589 21 21 20.6589 21 20.2841V11.9318C21 10.3103 20.6954 8.86536 19.7919 7.80788C18.8885 6.7504 17.4392 6.20455 15.5114 6.20455ZM1.11861 6.68182C0.769282 6.71843 0.475394 7.04649 0.477273 7.39773V20.2841C0.47731 20.6589 0.818343 21 1.19318 21H5.25C5.62484 21 5.96587 20.6589 5.96591 20.2841V7.39773C5.96587 7.02289 5.62484 6.68186 5.25 6.68182C3.87575 6.68182 2.48706 6.68182 1.11861 6.68182ZM15.5114 7.63636C17.1802 7.63636 18.1194 8.05677 18.7031 8.74006C19.2869 9.42334 19.5682 10.4937 19.5682 11.9318V19.5682H16.9432V13.125C16.9432 12.2793 16.6932 11.4838 16.2496 10.8654C15.8061 10.2471 15.1231 9.78409 14.3182 9.78409H13.8409C13.036 9.78409 12.353 10.2471 11.9094 10.8654C11.4659 11.4838 11.2159 12.2793 11.2159 13.125V15.75C11.1911 15.7487 11.1662 15.7487 11.1413 15.75C10.7664 15.7695 10.4431 16.1283 10.4626 16.5032C10.4821 16.8781 10.841 17.2014 11.2159 17.1818V17.6591C11.1911 17.6578 11.1662 17.6578 11.1413 17.6591C10.7664 17.6786 10.4431 18.0374 10.4626 18.4123C10.4821 18.7872 10.841 19.1105 11.2159 19.0909V19.5682H8.59091V8.11364H10.9773V9.06818C10.9771 9.36265 11.1783 9.64664 11.4562 9.74414C11.7341 9.84163 12.0686 9.74562 12.2525 9.51562C13.0464 8.52577 13.8123 7.63636 15.5114 7.63636ZM1.90909 8.11364H4.53409V15.75C4.50926 15.7487 4.48435 15.7487 4.45952 15.75C4.08462 15.7695 3.76125 16.1283 3.78077 16.5032C3.8003 16.8781 4.1592 17.2014 4.53409 17.1818V17.6591C4.50926 17.6578 4.48435 17.6578 4.45952 17.6591C4.08462 17.6786 3.76125 18.0374 3.78077 18.4123C3.8003 18.7872 4.1592 19.1105 4.53409 19.0909V19.5682H1.90909V8.11364Z" fill="#A4A4A4"/>
</svg>
