<svg width="118" height="119" viewBox="0 0 118 119" fill="none" xmlns="http://www.w3.org/2000/svg">
<path d="M110.425 50.8599C106.57 49.208 101.2 47.6934 94.7288 46.4535C91.011 35.4383 82.199 26.7647 71.3223 22.9085C71.0466 21.3939 70.6336 19.8794 70.358 18.502C67.4661 6.38536 63.4736 0.189697 58.6541 0.189697C55.4876 0.189697 52.7341 2.80599 50.5308 7.89991C48.8789 11.6177 47.3643 16.8491 46.2628 23.1832C35.386 27.0384 26.7112 35.8503 23.1319 47.0027C16.6606 48.2417 11.2908 49.7562 7.57302 51.5464C2.47886 53.887 0 56.6406 0 59.8081C0 64.6276 6.19566 68.4826 18.4498 71.2361C20.1017 71.6491 21.892 71.9247 23.6821 72.3377C27.6746 82.6642 36.0735 90.9259 46.5384 94.6428C48.6033 105.795 52.4584 118.601 59.3428 118.601C64.1623 118.601 68.0173 112.405 70.7708 100.151C71.1838 98.3605 71.5968 96.4329 71.8724 94.5053C82.3364 90.6501 90.5978 82.3886 94.4531 71.9247C96.2433 71.649 98.0327 71.236 99.6854 70.823C111.94 67.9311 118.135 63.9387 117.998 59.1192C117.997 55.8162 115.381 53.0627 110.425 50.8594L110.425 50.8599ZM92.1127 58.7086C92.1127 61.7377 91.6997 64.767 90.8738 67.6577C85.7796 68.4837 80.1342 69.1723 74.2132 69.5853C74.3505 66.1431 74.3505 62.7009 74.3505 59.2588V55.1279L82.3363 54.4393C83.1623 54.302 83.9883 53.7507 84.2639 52.9247C84.5396 52.0987 84.4013 51.1345 83.8509 50.4468L73.5244 39.4316C73.1114 35.5764 72.6984 31.8586 72.1471 28.2792C83.851 33.3734 92.1125 45.077 92.1125 58.708L92.1127 58.7086ZM58.6548 4.73533C58.6548 4.73533 62.3726 4.87267 65.8148 19.4683C65.9521 20.1569 66.0904 20.8456 66.2278 21.5332C63.8872 21.1202 61.4082 20.8446 58.9304 20.8446C56.3141 20.8446 53.698 21.1202 51.2201 21.6706C53.698 9.41742 57.003 4.73533 58.6547 4.73533H58.6548ZM58.9305 25.5265C61.8224 25.5265 64.5759 25.9395 67.1922 26.6282C67.8808 31.0346 68.5694 35.7157 68.9824 40.8099L61.2722 52.5138C60.7218 53.2024 60.7218 54.1657 61.2722 54.9916C61.6852 55.6803 62.5111 56.0933 63.1997 56.0933H63.3371L69.6712 55.5429V59.2607C69.6712 62.8403 69.6712 66.4207 69.5338 69.8629C66.0917 70.0002 62.512 70.1385 58.9317 70.1385H57.6927V62.5655C57.6927 61.7395 57.1424 60.9135 56.3155 60.5006C55.4895 60.0876 54.5253 60.2249 53.8376 60.7762L42.5468 69.7254C37.0398 69.3124 31.8072 68.7611 26.9879 68.0734C26.162 65.1815 25.6107 62.015 25.6107 58.7112C25.748 40.3969 40.6183 25.5262 58.9309 25.5262L58.9305 25.5265ZM19.2767 66.5572C4.54367 63.2525 4.40647 59.6729 4.40647 59.5354C4.40647 58.7095 5.64543 57.1949 9.3632 55.543C12.3923 54.1657 16.6606 52.9267 21.7545 51.8252C21.3415 54.0284 21.0659 56.3689 21.0659 58.7096C21.0659 61.6015 21.3415 64.355 22.0302 67.1085C21.2042 66.9702 20.2409 66.6945 19.2767 66.5572L19.2767 66.5572ZM28.9155 73.0285C33.0463 73.5788 37.59 73.9928 42.2711 74.4058L53.975 83.4933C54.388 83.769 54.9392 84.0437 55.3522 84.0437C56.5912 84.0437 57.6928 82.942 57.6928 81.7031V81.5658V74.9571H58.9317C62.5114 74.9571 65.9535 74.8197 69.2583 74.6814C68.9826 80.4643 68.294 85.9722 67.6063 90.928C64.8528 91.7539 61.8235 92.1669 58.7944 92.1669C45.7124 91.8913 34.2851 84.1811 28.9163 73.0285L28.9155 73.0285ZM66.2286 98.7759C62.9239 113.509 59.3443 113.646 59.2068 113.646C58.3808 113.646 56.8663 112.407 55.2144 108.689C53.6998 105.523 52.4609 100.979 51.3592 95.7466C53.837 96.2969 56.3159 96.4352 58.9322 96.4352C61.6857 96.4352 64.302 96.1596 66.918 95.6092C66.6414 96.7109 66.5041 97.8124 66.2284 98.7758L66.2286 98.7759ZM72.6999 88.8625C73.2502 84.3188 73.8015 79.3618 74.0772 74.1295C79.3095 73.7165 84.4037 73.1652 89.0848 72.4776C85.78 79.7759 79.8598 85.5585 72.6998 88.8625L72.6999 88.8625ZM98.585 66.0072C97.759 66.2828 96.7948 66.4202 95.8315 66.5575C96.3819 63.9412 96.6575 61.3252 96.6575 58.5717C96.6575 56.0938 96.3819 53.615 95.9689 51.2743C108.499 53.7522 113.317 57.0571 113.317 58.7089C113.455 58.9845 113.317 62.5651 98.5852 66.0073L98.585 66.0072Z" fill="black"/>
</svg>
