<svg width="23" height="22" viewBox="0 0 23 22" fill="none" xmlns="http://www.w3.org/2000/svg">
<path d="M2.50418 0.45459C1.37757 0.45459 0.45459 1.36337 0.45459 2.47264V13.5719C0.45459 14.6812 1.37757 15.59 2.50418 15.59H5.06616V18.6171C5.06565 19.0545 5.59191 19.2855 5.92182 18.9925L9.7598 15.59H16.8513C17.9779 15.59 18.9009 14.6812 18.9009 13.5719V2.47264C18.9009 1.36337 17.9779 0.45459 16.8513 0.45459H2.50418ZM4.55376 6.00424C5.39666 6.00424 6.09095 6.68785 6.09095 7.51778C6.09095 8.34771 5.39666 9.03132 4.55376 9.03132C3.71087 9.03132 3.01657 8.34771 3.01657 7.51778C3.01657 6.68785 3.71087 6.00424 4.55376 6.00424ZM9.67773 6.00424C10.5206 6.00424 11.2149 6.68785 11.2149 7.51778C11.2149 8.34771 10.5206 9.03132 9.67773 9.03132C8.83483 9.03132 8.14054 8.34771 8.14054 7.51778C8.14054 6.68785 8.83483 6.00424 9.67773 6.00424ZM14.8017 6.00424C15.6446 6.00424 16.3389 6.68785 16.3389 7.51778C16.3389 8.34771 15.6446 9.03132 14.8017 9.03132C13.9588 9.03132 13.2645 8.34771 13.2645 7.51778C13.2645 6.68785 13.9588 6.00424 14.8017 6.00424Z" fill="#A4A4A4"/>
<path d="M20.4382 9.53589C20.3023 9.53589 20.1719 9.58904 20.0759 9.68366C19.9798 9.77827 19.9258 9.9066 19.9258 10.0404C19.9258 10.1742 19.9798 10.3025 20.0759 10.3971C20.1719 10.4918 20.3023 10.5449 20.4382 10.5449H20.9636C21.5332 10.5449 21.9754 10.9803 21.9754 11.5411V17.1164C21.9754 17.6772 21.5332 18.1126 20.9636 18.1126H19.9258C19.7899 18.1126 19.6596 18.1658 19.5635 18.2604C19.4674 18.355 19.4134 18.4833 19.4134 18.6171V19.9218L17.7261 18.2604C17.63 18.1658 17.4997 18.1126 17.3638 18.1126H12.7392C12.1696 18.1126 11.7274 17.6772 11.7274 17.1164C11.7274 16.9826 11.6734 16.8543 11.5774 16.7597C11.4813 16.665 11.3509 16.6119 11.215 16.6119C11.0791 16.6119 10.9488 16.665 10.8527 16.7597C10.7566 16.8543 10.7026 16.9826 10.7026 17.1164C10.7026 18.2186 11.6198 19.1216 12.7392 19.1216H17.1516L19.5635 21.4964C19.6352 21.5669 19.7265 21.6149 19.8258 21.6344C19.9252 21.6538 20.0282 21.6438 20.1218 21.6057C20.2154 21.5675 20.2954 21.5028 20.3518 21.4199C20.4081 21.337 20.4381 21.2395 20.4382 21.1397V19.1216H20.9636C22.083 19.1216 23.0002 18.2186 23.0002 17.1164V11.5411C23.0002 10.4389 22.083 9.53589 20.9636 9.53589H20.4382Z" fill="#A4A4A4"/>
</svg>
