<svg width="14" height="23" viewBox="0 0 14 23" fill="none" xmlns="http://www.w3.org/2000/svg">
<path d="M10.7893 0H3.21761C2.36506 0 1.54735 0.338382 0.944009 0.940758C0.340795 1.54314 0.00129168 2.36035 0 3.21307V18.9536C0.00130209 19.8063 0.340824 20.6236 0.944009 21.2259C1.54735 21.8283 2.36506 22.1667 3.21761 22.1667H10.7893C11.6412 22.1667 12.4583 21.8282 13.0604 21.2254C13.6626 20.6229 14.0006 19.8057 14 18.9536V3.21307C14.0006 2.36102 13.6626 1.54381 13.0604 0.941258C12.4583 0.338545 11.6412 0 10.7893 0V0ZM6.99994 20.8835C6.69053 20.8835 6.39381 20.7606 6.17489 20.5419C5.95614 20.323 5.83325 20.0263 5.83325 19.7168C5.83325 19.4074 5.95614 19.1107 6.17489 18.8919C6.3938 18.673 6.69052 18.5502 6.99994 18.5502C7.30936 18.5502 7.60607 18.673 7.82499 18.8919C8.04374 19.1107 8.16662 19.4074 8.16662 19.7168C8.16662 20.0263 8.04374 20.323 7.82499 20.5419C7.60607 20.7606 7.30936 20.8835 6.99994 20.8835ZM12.8333 17.1502H1.16655V3.85012H12.8333V17.1502Z" fill="black"/>
</svg>
