<svg width="872" height="1710" viewBox="0 0 872 1710" fill="none" xmlns="http://www.w3.org/2000/svg">
<path d="M406.388 12.5703L343.601 26.1517L295.15 64.7055L246.206 103.259L223.464 158.023L200.722 212.349L212.093 261.855C218.52 288.58 223.464 315.743 223.958 321.877C223.958 328.01 231.869 351.23 241.262 374.012C251.15 397.232 256.588 416.509 254.116 417.823C251.644 419.137 229.397 425.271 205.172 430.966L161.171 441.481L123.103 497.121L85.5294 552.323L78.6079 648.269C74.1584 712.234 73.664 749.473 77.1247 760.426C81.5742 776.636 80.0911 779.265 41.0343 834.467L0 891.859L3.46073 942.68C5.93267 980.358 9.3934 996.568 15.8205 1004.89C20.27 1011.03 41.5287 1042.13 62.2931 1073.24C96.9003 1126.25 101.844 1137.2 132.002 1226.14C149.8 1278.71 164.632 1324.27 164.632 1327.34C164.632 1330.85 189.846 1362.39 220.498 1397.44C250.655 1432.93 275.869 1463.16 275.869 1464.47C275.869 1466.22 273.892 1486.81 271.42 1510.03L267.465 1552.53L309.982 1624.38L352.005 1696.23L382.163 1704.12C398.972 1708.5 413.31 1713.76 414.793 1715.51C415.781 1717.26 431.108 1714.19 448.906 1708.5C483.513 1696.67 527.513 1663.37 532.952 1644.53C534.435 1638.4 536.412 1601.16 537.401 1561.29C538.39 1514.85 541.356 1481.12 546.3 1465.35L553.716 1441.25L564.593 1463.16C570.525 1474.99 577.941 1493.39 580.907 1503.46C585.851 1521.86 583.874 1577.5 577.447 1595.03C574.975 1602.48 577.447 1605.98 591.784 1613.43C601.672 1618.69 609.582 1625.26 609.582 1628.32C609.582 1631.39 619.964 1643.22 632.324 1655.05C657.538 1677.83 673.853 1681.34 694.123 1667.75C711.426 1656.36 728.73 1650.67 755.427 1646.72C784.102 1643.22 795.967 1633.58 799.922 1611.24C801.405 1602.04 809.315 1583.2 817.226 1569.62C825.63 1556.04 832.057 1542.02 832.057 1538.07C832.057 1534.57 825.63 1517.04 817.226 1499.08C806.349 1474.99 803.383 1462.72 805.855 1450.45C809.81 1428.55 841.945 1374.22 868.642 1343.55C883.474 1326.47 893.856 1308.94 900.283 1287.91C905.721 1270.83 916.103 1242.35 923.519 1224.39C943.295 1174.44 945.767 1165.68 945.767 1149.47C945.767 1133.7 967.026 1096.02 1010.04 1033.81C1040.2 990.434 1052.55 949.252 1048.11 903.25C1046.13 885.726 1042.17 869.954 1037.72 865.573C1033.77 861.63 1025.86 848.924 1019.93 837.972C1014.49 826.581 1002.62 812.123 993.723 805.551L977.902 793.722L979.385 749.035C981.363 683.318 967.026 614.535 946.756 595.258C941.812 590.439 926.486 567.219 913.137 543.123C885.946 494.054 861.226 469.082 833.54 462.51C823.158 459.882 796.956 457.691 774.708 457.691C729.719 457.691 718.348 451.996 718.348 428.776C718.348 419.137 724.775 409.937 745.045 391.536L771.247 367.44L782.618 295.59C788.551 255.722 793.495 221.111 793.989 218.921C793.989 216.292 779.158 184.748 760.371 147.947L727.247 81.7918L662.482 43.238L597.222 5.12238L547.783 3.36993C520.592 2.49371 491.917 1.17938 483.513 0.741265C475.603 -0.134957 440.501 5.12238 406.388 12.5703ZM418.253 44.5524C342.612 103.259 351.016 97.5638 353.983 87.4873C355.466 82.668 359.421 67.7723 362.387 53.7527L367.826 29.2185L405.894 20.4563C426.658 15.637 447.917 11.694 452.861 11.2559C457.805 10.8178 442.478 25.2755 418.253 44.5524ZM579.919 15.1989C579.919 18.7038 553.716 54.6289 541.356 67.7723C539.379 69.9628 511.693 43.238 494.884 22.6468L485.49 10.8178H532.457C560.638 10.8178 579.919 12.5703 579.919 15.1989ZM431.602 96.6876C407.377 141.813 386.612 179.052 385.624 179.929C382.657 182.995 352.005 115.526 353.488 109.831C354.972 104.135 466.209 15.1989 472.142 15.1989C473.625 15.1989 455.827 52.0003 431.602 96.6876ZM667.426 55.9433C690.168 68.2104 708.46 79.6013 708.46 80.9156C708.46 83.1061 548.772 80.9156 545.806 78.725C544.323 77.4107 548.278 72.1534 581.896 31.409L595.739 14.7608L611.065 23.9612C619.964 28.7804 645.178 43.238 667.426 55.9433ZM510.704 52.8765C525.041 68.6485 534.435 83.1061 531.963 85.2967C514.165 99.3163 400.95 173.357 402.433 169.852C411.332 148.823 479.063 24.3993 482.03 23.9612C483.513 23.9612 496.861 37.1045 510.704 52.8765ZM355.96 42.3618C354.477 48.0573 350.522 63.8293 347.556 77.4107L342.117 102.821H301.578C255.105 102.821 254.116 107.64 314.926 59.4481C351.016 30.5328 359.915 27.0279 355.96 42.3618ZM713.404 91.8684C713.404 94.9351 499.828 186.5 497.356 184.748C496.367 183.872 506.749 161.966 520.098 136.118L544.817 89.6778H629.358C675.336 89.6778 713.404 90.554 713.404 91.8684ZM507.243 143.127C494.389 168.1 483.513 189.129 483.018 189.567C480.546 193.072 406.388 184.748 407.871 181.681C409.354 178.176 525.536 98.44 528.502 98.44C529.491 98.44 519.603 118.593 507.243 143.127ZM704.999 151.013L686.212 200.082L621.942 197.453C586.84 195.701 547.783 193.072 535.424 191.758L513.671 189.129L616.998 144.442C674.347 119.907 721.314 100.192 722.303 101.069C723.292 101.507 715.381 124.289 704.999 151.013ZM308.005 129.984C244.723 180.367 219.014 199.644 219.014 196.577C219.014 194.386 225.936 174.233 234.835 151.89L250.655 111.583H290.701L330.252 112.021L308.005 129.984ZM777.674 204.463C777.674 206.653 773.719 207.53 769.27 206.215C764.326 205.339 747.517 203.149 732.191 201.396C716.37 200.082 702.527 196.577 701.044 194.386C699.561 192.196 705.494 172.481 714.393 150.575L730.707 110.707L753.944 155.394C767.292 179.929 777.674 202.272 777.674 204.463ZM319.87 185.186L301.578 246.96L286.251 241.264C232.363 221.111 219.014 214.978 220.003 211.911C221.981 206.653 334.207 120.346 336.185 122.098C337.174 122.974 329.758 151.451 319.87 185.186ZM377.219 192.634C377.219 197.891 313.937 254.408 310.971 251.341C309.488 250.026 337.668 152.328 345.578 133.489C348.05 127.355 377.219 181.681 377.219 192.634ZM450.389 197.015C464.232 198.767 476.097 200.958 476.097 201.834C476.097 204.901 375.736 330.639 374.253 329.325C372.77 328.01 392.051 204.025 395.017 195.701C396.006 191.758 401.939 190.443 410.343 192.196C418.253 193.51 436.051 195.701 450.389 197.015ZM647.65 207.53L668.909 210.158L620.953 234.254C594.75 247.398 558.166 265.798 539.873 274.561L507.243 290.771L497.356 247.398C491.917 223.302 488.951 202.71 490.434 200.958C493.895 197.891 614.032 202.71 647.65 207.53ZM374.747 261.417C361.399 345.973 363.871 343.344 339.645 297.781L318.387 258.351L349.039 230.75C365.848 215.854 380.185 205.339 381.174 207.53C382.163 210.158 379.197 234.254 374.747 261.417ZM773.225 214.978C782.618 216.73 786.079 219.359 784.596 224.616C783.113 228.559 778.169 261.417 773.225 296.904C767.787 332.829 762.843 362.621 761.854 363.497C760.865 364.373 747.517 329.763 732.191 286.39L704.999 207.092L732.685 209.72C748.011 211.473 766.304 213.663 773.225 214.978ZM639.245 266.237C609.088 299.533 591.29 316.181 585.851 314.867C580.907 314.429 562.615 311.362 544.323 308.295C525.536 305.667 510.704 302.162 510.704 300.409C511.199 297.342 680.28 212.349 682.752 214.539C683.74 215.416 663.965 238.636 639.245 266.237ZM491.423 259.227C495.873 280.256 498.839 299.095 496.861 300.847C491.423 305.228 385.624 339.401 383.152 337.649C382.163 336.334 402.927 308.733 429.13 275.875C455.827 243.017 478.569 217.168 479.558 218.482C481.041 219.797 486.479 238.197 491.423 259.227ZM710.932 251.779C717.853 269.741 721.808 285.513 719.831 287.266C714.393 291.647 619.964 313.991 615.02 312.238C612.548 311.362 629.358 289.456 652.594 263.608C675.83 237.759 695.606 217.168 696.595 218.044C697.583 218.921 704.01 234.254 710.932 251.779ZM297.622 258.351C297.622 264.484 238.79 318.81 235.329 315.743C232.363 313.114 214.565 240.388 214.071 228.997C214.071 222.864 220.498 224.178 256.094 237.759C278.836 246.522 298.117 255.722 297.622 258.351ZM335.196 307.419C346.073 328.01 355.466 346.411 356.455 348.163C357.444 350.792 281.802 396.356 276.364 396.356C275.375 396.356 282.791 367.878 292.678 332.829C302.566 298.219 311.465 269.741 312.948 269.741C314.432 269.741 324.319 286.39 335.196 307.419ZM283.779 335.02C273.892 368.755 264.993 396.356 263.51 396.356C262.026 396.356 254.611 382.336 247.195 365.25L233.352 333.706L264.498 304.352C281.802 288.142 297.128 274.561 298.611 274.123C300.094 274.123 293.667 301.285 283.779 335.02ZM738.123 328.886C744.056 346.849 748.011 362.621 747.022 363.935C745.045 365.688 636.773 325.382 631.83 321C629.852 319.248 696.1 301.285 723.786 296.028C725.269 296.028 731.696 310.486 738.123 328.886ZM547.289 317.496C563.109 320.562 573.986 324.067 572.008 326.258C562.121 333.706 448.411 412.566 441.984 416.071C437.04 418.261 438.523 414.318 444.95 404.68C479.063 355.611 502.3 318.81 502.3 313.991C502.3 310.924 505.76 309.61 510.21 310.486C514.659 311.8 530.974 314.867 547.289 317.496ZM486.974 327.134C481.535 335.02 461.265 365.25 441.984 394.165C420.725 426.585 406.388 444.11 404.905 440.167C390.073 405.556 372.77 354.735 374.747 352.983C378.702 349.478 482.524 313.991 489.94 313.553C494.884 313.114 493.895 317.057 486.974 327.134ZM746.528 376.202C747.517 377.079 739.112 387.155 728.236 398.546C710.438 416.509 707.966 421.766 710.438 433.157C715.876 457.253 725.764 461.634 778.663 464.263C834.035 466.891 844.911 469.52 865.181 487.483C877.047 497.997 916.103 556.704 916.103 563.714C916.103 565.028 903.249 560.209 887.923 553.637C861.721 542.247 784.596 527.351 756.416 528.227C746.034 528.227 746.034 528.665 755.427 531.732C760.865 533.922 777.674 536.551 792.506 538.304C865.181 546.19 895.339 558.019 929.946 590.877C960.599 620.23 968.014 646.955 968.014 727.129C968.014 802.485 965.048 810.809 922.531 850.239C885.946 883.973 859.249 893.612 804.866 893.612C749 893.174 719.337 882.221 675.83 844.543C651.111 823.514 640.234 809.056 617.492 768.312C602.661 741.149 589.807 719.682 589.807 720.996C589.807 722.31 594.256 735.015 599.694 749.035C622.931 809.056 677.313 865.573 735.651 889.669C772.731 905.441 837.001 904.564 875.069 888.354C906.216 875.649 952.688 836.219 963.565 813.437L970.981 798.98L985.812 808.618C994.217 813.875 1004.6 825.266 1008.55 833.59C1012.51 842.353 1021.41 855.496 1027.84 862.944C1038.22 875.211 1039.7 881.345 1039.7 916.393C1039.7 975.976 1031.3 994.815 966.037 1085.94C957.632 1098.21 950.711 1105.22 950.711 1102.15C950.711 1099.09 948.733 1097.77 946.261 1099.52C943.789 1100.84 940.329 1115.3 938.351 1131.51C933.901 1174.88 926.98 1200.29 908.688 1241.91C899.789 1262.5 890.89 1286.16 889.406 1294.92C887.429 1303.68 881.002 1317.7 874.08 1325.59C817.72 1395.69 797.45 1431.17 797.45 1460.53C797.45 1467.98 802.394 1484.19 807.832 1496.89C827.113 1539.83 827.113 1541.14 811.787 1563.48C803.877 1574.44 797.45 1586.7 797.45 1590.65C797.45 1594.59 794.978 1605.54 792.012 1614.74C785.585 1632.27 780.641 1635.33 735.651 1644.53C722.303 1647.6 703.022 1654.61 693.134 1660.74C683.74 1666.44 672.37 1671.26 668.414 1671.26C658.527 1670.82 626.391 1643.66 616.998 1627.45C612.548 1620 603.649 1611.68 596.728 1609.05C585.851 1604.67 584.368 1601.6 586.84 1590.65C594.75 1553.85 595.739 1537.2 589.807 1512.22C582.885 1484.62 564.098 1444.76 543.828 1417.15C534.435 1404.01 532.952 1396.56 533.941 1363.27C534.929 1322.52 528.502 1314.2 524.547 1351.88C521.581 1375.53 529.491 1417.15 539.873 1433.8C544.817 1442.13 544.817 1448.7 540.368 1465.78C536.907 1477.61 532.457 1488.57 529.985 1489.88C527.513 1491.2 526.525 1522.74 528.502 1565.24C531.469 1637.09 531.469 1638.84 520.098 1653.3C513.671 1661.62 500.322 1672.57 490.434 1678.27L472.142 1688.35L454.838 1674.33C440.007 1662.5 437.04 1655.92 432.591 1631.83C425.669 1592.4 378.208 1353.63 372.77 1329.97C368.814 1313.32 370.298 1307.19 382.657 1282.22C390.568 1266.44 397.489 1249.8 397.489 1244.54C397.983 1239.28 389.579 1212.56 379.197 1184.96L360.41 1134.57L358.927 983.424L357.938 832.276L399.467 802.485C422.703 785.836 441.49 770.941 441.49 769.188C441.49 763.931 435.557 763.055 331.241 748.597C280.319 741.587 238.79 734.577 238.79 732.825C238.79 731.511 289.712 695.585 352.005 653.089C444.456 590.439 467.198 576.857 476.591 579.048C485.49 580.8 486.974 580.362 483.513 576.419C480.546 573.791 458.299 565.905 434.568 558.457C393.534 546.19 389.084 545.751 352.994 550.133C332.23 552.323 308.993 555.39 300.589 556.704C287.735 558.895 293.667 552.323 345.084 506.321C377.713 476.968 406.882 453.31 409.849 453.31C413.31 453.31 416.77 450.681 418.253 447.176C423.197 436.224 580.907 329.325 596.728 326.258C608.593 324.067 626.391 328.886 678.302 349.04C714.887 363.059 745.539 375.326 746.528 376.202ZM334.702 415.632C318.387 445.862 304.049 470.396 302.566 470.834C300.589 470.834 291.69 458.129 282.791 441.919C268.453 417.823 266.97 413.004 273.397 409.499C277.352 407.308 298.611 395.041 320.364 381.898C342.117 368.755 360.904 358.678 361.893 359.554C362.882 360.43 350.522 385.841 334.702 415.632ZM380.68 401.613C386.612 416.947 393.04 432.281 394.523 436.662C396.995 442.795 392.545 444.11 364.859 446.738C347.061 448.491 331.241 448.929 329.758 448.053C327.286 445.424 363.376 374.888 367.331 374.45C368.814 374.45 374.747 386.717 380.68 401.613ZM278.341 452.872L292.678 478.72L252.139 465.577C229.891 458.129 207.644 451.119 203.194 450.243C187.868 446.3 193.306 441.481 220.498 434.909C261.038 424.395 262.026 424.395 278.341 452.872ZM220.003 463.825C306.027 491.864 308.005 485.73 204.183 515.084C153.755 529.103 111.238 540.494 109.26 539.618C104.811 538.742 165.62 448.929 170.564 448.929C172.542 448.929 194.789 455.501 220.003 463.825ZM345.084 469.958C326.297 479.159 309.982 486.168 308.993 485.73C308.005 485.292 310.971 478.72 314.926 471.711C321.353 460.32 326.297 458.129 343.601 456.377C355.466 455.501 368.32 454.624 372.275 454.186C376.23 453.748 364.365 461.196 345.084 469.958ZM322.836 512.017L270.925 558.019L187.868 555.39C142.384 554.076 105.799 552.323 106.788 551.447C107.282 550.571 154.249 537.427 210.115 521.655C266.476 505.883 325.308 487.045 341.129 480.035C356.949 472.587 370.792 466.891 372.275 466.453C373.758 466.453 351.511 487.045 322.836 512.017ZM425.669 564.59C453.849 572.914 456.321 575.543 441.49 583.867C436.051 586.496 403.422 608.401 368.814 632.059C280.813 691.642 264.993 701.719 271.42 694.271C274.386 690.766 293.173 667.984 312.948 643.888C333.218 619.792 357.938 589.563 368.814 576.857C379.197 563.714 390.568 554.076 393.534 555.39C396.995 556.266 411.332 560.647 425.669 564.59ZM347.061 560.209C343.106 563.714 222.97 603.144 220.992 601.392C216.543 597.449 284.274 567.219 306.027 563.714C333.218 558.895 350.028 557.58 347.061 560.209ZM146.834 585.181C171.553 597.449 192.812 608.401 193.801 609.278C195.778 611.03 89.9789 720.558 86.0237 720.558C83.5518 720.558 92.4508 569.409 94.9228 563.714C96.4059 560.647 106.294 565.028 146.834 585.181ZM261.532 566.781C260.049 568.533 245.217 577.734 228.902 586.496L198.745 602.268L160.677 582.553L122.609 562.838H193.306C232.363 562.838 263.015 564.59 261.532 566.781ZM364.365 568.095C361.893 571.162 331.241 608.401 296.139 650.46L231.869 727.129L220.498 676.747C214.071 649.146 209.621 623.735 210.115 620.668C211.104 616.725 347.556 566.343 366.343 563.276C367.331 562.838 366.343 565.466 364.365 568.095ZM211.104 679.375C217.531 707.853 222.97 731.949 222.475 732.387C220.992 733.701 83.0574 741.587 82.0686 740.711C81.5742 740.273 106.788 713.548 137.935 681.566C169.576 650.022 196.273 624.611 197.261 625.488C198.25 626.364 204.677 650.46 211.104 679.375ZM213.576 744.216C212.587 745.092 186.385 753.416 155.733 762.178C95.4171 779.265 85.5294 778.827 85.5294 757.359C85.5294 747.721 87.5069 747.283 126.564 745.53C148.811 745.092 177.98 743.778 191.329 743.34C204.677 742.901 214.565 743.34 213.576 744.216ZM336.185 836.657C334.702 840.6 252.633 874.335 249.667 871.706C248.183 870.392 233.846 765.683 233.846 754.292C233.846 748.597 250.161 759.55 285.757 788.903C314.432 812.561 337.174 834.029 336.185 836.657ZM341.129 757.797C384.141 763.931 421.22 769.626 423.692 770.064C426.164 770.941 409.849 784.96 387.601 801.17L347.061 831.4L298.611 788.903C271.914 765.683 253.127 746.844 256.588 746.844C260.049 746.844 298.117 751.664 341.129 757.797ZM231.869 814.752C236.318 847.61 238.296 875.649 237.307 876.525C235.329 878.278 170.07 858.125 166.115 854.62C165.126 853.744 176.991 830.086 192.812 802.485C208.138 774.445 221.981 752.102 222.97 752.978C223.958 753.854 227.913 781.893 231.869 814.752ZM180.947 804.237C168.092 826.581 154.744 845.419 152.272 846.296C147.328 847.61 101.844 787.151 105.799 784.96C115.193 779.703 202.205 757.797 203.194 760.426C204.183 762.178 194.295 782.331 180.947 804.237ZM116.181 817.818C129.036 835.343 138.923 849.801 138.429 850.239C134.968 852.867 21.2587 881.345 21.2587 879.592C21.2587 878.278 29.6634 865.134 40.0455 850.239C50.9221 835.343 65.2594 815.19 72.6752 804.675C79.5967 794.599 87.5069 786.274 89.4845 786.274C91.462 786.274 103.327 800.732 116.181 817.818ZM253.622 931.727C212.587 973.348 176.991 1007.96 175.014 1008.83C171.059 1010.15 120.137 954.071 120.137 948.376C120.137 945.309 220.003 895.802 226.43 895.802C228.408 895.802 236.318 891.859 244.228 886.602C258.566 877.84 323.825 851.991 326.791 854.182C327.78 855.058 294.656 889.669 253.622 931.727ZM222.97 884.849C224.453 886.164 187.868 887.04 141.89 887.04C95.9115 887.04 52.8997 888.354 45.9782 890.107C39.0568 891.421 35.596 890.983 37.5736 888.792C39.5511 886.602 64.2706 878.716 91.9564 871.268L142.384 857.687L181.441 869.954C202.7 876.963 221.486 883.535 222.97 884.849ZM349.039 1131.94C346.567 1135.01 238.79 1096.02 238.79 1092.08C238.79 1089.89 262.521 1036 292.184 971.595L345.084 854.182L348.05 992.187C349.533 1067.98 350.028 1131.07 349.039 1131.94ZM282.791 970.281C258.566 1024.61 236.318 1073.68 233.352 1079.37C228.902 1089.45 227.419 1088.13 204.183 1055.27C190.834 1036.44 181.441 1018.91 183.418 1015.84C188.362 1008.83 324.814 869.954 325.803 870.83C326.791 871.268 307.016 915.955 282.791 970.281ZM186.879 903.688C178.969 908.069 153.261 920.775 130.024 931.727C106.788 943.118 72.1808 959.766 52.4053 969.405L17.3036 986.491L14.3373 973.348C12.8541 966.338 11.371 945.747 11.371 928.222V895.802H106.788C200.722 895.802 201.711 895.802 186.879 903.688ZM132.002 978.605C144.362 993.063 154.744 1005.33 154.744 1006.64C154.744 1008.83 35.596 993.063 32.6297 990.434C30.6521 988.682 99.8666 953.633 106.294 953.195C108.271 952.757 119.642 964.586 132.002 978.605ZM92.4508 1007.52C159.688 1016.72 164.632 1017.6 164.632 1024.17C164.632 1030.3 105.305 1120.99 102.833 1118.36C99.8666 1115.73 26.2026 1004.45 26.2026 1002.7C26.2026 999.634 41.0343 1000.95 92.4508 1007.52ZM202.205 1066.67L227.419 1101.28L204.677 1103.47C140.901 1110.48 125.081 1111.35 125.081 1108.29C125.081 1103.47 171.553 1031.62 174.519 1031.62C176.003 1031.62 188.362 1047.39 202.205 1066.67ZM297.128 1124.5C324.814 1134.57 347.061 1145.09 345.578 1147.72C344.589 1149.91 334.207 1179.26 322.342 1212.12C310.477 1245.41 299.6 1272.58 298.117 1272.58C296.139 1272.58 246.206 1135.45 239.779 1111.79C237.307 1103.47 241.262 1104.34 297.128 1124.5ZM223.958 1112.23C223.958 1113.11 215.059 1152.1 204.677 1198.98C193.801 1245.41 183.913 1292.29 181.935 1302.37C179.958 1312.88 176.991 1319.89 174.519 1317.7C166.609 1309.82 109.26 1127.12 113.215 1123.62C119.148 1118.36 223.958 1107.41 223.958 1112.23ZM263.51 1205.55C277.847 1247.17 288.723 1282.22 287.24 1283.53C282.791 1287.47 199.239 1276.08 199.239 1271.26C199.239 1257.24 230.88 1123.62 233.846 1126.69C235.329 1128.44 248.678 1164.36 263.51 1205.55ZM371.781 1188.46C378.208 1209.49 384.635 1228.77 385.624 1231.83C388.096 1237.09 313.937 1283.97 309.488 1280.03C306.521 1277.4 353.488 1149.91 357.444 1149.91C358.927 1149.91 365.354 1166.99 371.781 1188.46ZM346.567 1334.79C321.847 1383.86 300.094 1425.04 298.611 1426.79C294.656 1430.74 297.622 1350.12 302.072 1318.58C305.533 1297.55 306.521 1296.24 345.084 1272.14C366.837 1258.12 386.118 1246.73 388.096 1246.73C389.579 1246.29 371.286 1286.16 346.567 1334.79ZM269.937 1293.17C272.409 1294.48 256.094 1301.93 233.352 1309.38C210.61 1316.83 190.834 1321.65 189.846 1319.46C189.351 1317.7 189.846 1308.94 191.823 1300.18L194.789 1284.84L230.385 1287.91C249.667 1289.23 267.959 1291.85 269.937 1293.17ZM290.701 1354.5C289.218 1385.61 286.746 1421.1 285.263 1433.8L282.296 1457.02L233.352 1399.19C206.655 1367.65 184.407 1340.48 184.407 1338.29C184.407 1335.23 279.33 1299.74 289.712 1299.3C291.69 1298.86 292.184 1323.84 290.701 1354.5ZM365.848 1339.61C367.826 1351.88 404.41 1536.32 416.77 1596.34C422.209 1621.75 425.669 1642.78 424.68 1643.66C422.703 1645.41 285.757 1479.8 285.757 1475.86C285.757 1470.6 360.41 1326.47 361.893 1327.78C363.376 1329.09 364.859 1334.35 365.848 1339.61ZM338.162 1555.16C363.871 1586.27 390.568 1619.12 396.995 1627.45L408.86 1642.78L389.579 1627.89C378.702 1619.56 349.039 1595.47 324.319 1574.44C276.858 1534.13 273.397 1528.43 281.308 1501.27C285.263 1489 281.308 1485.06 338.162 1555.16ZM378.702 1630.51C399.467 1648.04 416.77 1663.37 416.77 1664.25C416.77 1665.13 406.388 1668.19 393.534 1671.26C380.185 1674.33 367.331 1679.58 363.871 1683.09C359.421 1687.91 350.522 1676.08 318.387 1621.75C296.139 1584.51 278.341 1552.53 278.341 1550.78C278.341 1547.27 289.712 1556.47 378.702 1630.51ZM449.894 1680.9C456.321 1686.15 461.265 1691.85 461.265 1693.6C461.265 1697.11 431.108 1707.18 428.141 1704.56C425.175 1701.93 432.096 1671.26 435.557 1671.26C437.04 1671.26 443.467 1675.64 449.894 1680.9ZM421.714 1679.58C421.714 1681.77 419.737 1688.78 417.265 1694.48L412.321 1705.43L390.073 1698.42C377.713 1694.48 367.331 1690.1 367.331 1688.35C367.331 1685.72 399.467 1676.95 413.31 1676.08C417.759 1676.08 421.714 1677.39 421.714 1679.58Z" fill="black" fill-opacity="0.06"/>
<path d="M557.177 929.099C553.222 941.804 560.638 950.566 572.009 947.061C576.953 945.309 579.919 939.175 579.919 930.851C579.919 913.327 562.121 912.013 557.177 929.099Z" fill="black" fill-opacity="0.06"/>
<path d="M544.818 949.69C548.773 954.071 557.672 957.138 567.065 956.7L582.391 956.262L567.065 953.195C558.66 951.443 548.773 947.938 544.818 946.185C538.885 942.68 538.885 943.557 544.818 949.69Z" fill="black" fill-opacity="0.06"/>
<path d="M888.912 1065.35C883.474 1066.23 853.316 1071.92 822.17 1078.06C756.416 1090.76 746.528 1092.95 749.495 1095.58C751.472 1097.77 839.473 1082.44 866.665 1075.43C876.058 1073.24 890.89 1071.05 899.789 1071.05C908.194 1071.05 917.093 1068.86 918.576 1066.67C921.542 1062.28 907.699 1061.41 888.912 1065.35Z" fill="black" fill-opacity="0.06"/>
<path d="M644.19 1112.67C632.324 1123.62 623.425 1133.26 624.908 1134.57C626.392 1135.45 637.268 1128 649.134 1117.05C660.999 1106.1 669.898 1096.46 668.415 1095.14C666.932 1094.27 656.055 1101.71 644.19 1112.67Z" fill="black" fill-opacity="0.06"/>
<path d="M799.923 1108.72C750.484 1116.61 733.675 1120.99 696.101 1136.76C679.786 1143.34 657.539 1152.1 646.662 1156.48C630.842 1162.17 610.078 1173.13 585.358 1188.02C584.369 1188.9 584.369 1190.65 585.852 1191.97C587.83 1193.28 600.684 1187.15 614.527 1178.82C628.864 1170.06 646.168 1161.74 653.584 1160.42C660.505 1158.67 677.809 1152.1 691.157 1145.53C732.192 1125.81 806.844 1110.48 863.699 1110.04C881.992 1109.6 895.34 1107.85 893.363 1105.66C889.408 1099.96 846.396 1101.28 799.923 1108.72Z" fill="black" fill-opacity="0.06"/>
<path d="M508.233 1114.86C509.716 1117.05 522.57 1119.24 535.918 1119.24C551.244 1119.24 559.649 1117.49 557.672 1114.86C556.188 1112.23 543.334 1110.48 529.986 1110.48C514.66 1110.48 506.255 1112.23 508.233 1114.86Z" fill="black" fill-opacity="0.06"/>
<path d="M520.592 1174C515.649 1179.26 515.649 1180.57 520.592 1180.57C524.548 1180.57 531.469 1184.08 536.907 1188.02C546.301 1195.91 546.795 1195.91 538.39 1181.45C528.997 1165.24 528.997 1165.24 520.592 1174Z" fill="black" fill-opacity="0.06"/>
<path d="M529.491 1218.25C527.019 1220 525.536 1226.58 525.536 1232.71C526.031 1242.79 526.525 1243.22 530.975 1236.21C536.413 1227.89 535.424 1213 529.491 1218.25Z" fill="black" fill-opacity="0.06"/>
<path d="M632.325 1350.56C630.842 1352.75 641.224 1356.26 655.561 1357.57C669.404 1359.32 690.168 1361.51 701.045 1362.83C728.731 1365.9 712.91 1357.57 683.741 1354.07C671.382 1352.31 655.561 1350.12 648.145 1348.81C641.224 1347.49 633.808 1348.37 632.325 1350.56Z" fill="black" fill-opacity="0.06"/>
<path d="M683.741 1460.97C665.943 1462.72 657.044 1464.47 663.965 1465.35C684.235 1467.54 715.382 1464.91 720.82 1460.53C723.292 1457.9 723.292 1457.02 720.82 1457.46C717.853 1457.9 701.539 1459.21 683.741 1460.97Z" fill="black" fill-opacity="0.06"/>
</svg>
